<svg width="961" height="237" viewBox="0 0 961 237" fill="none" xmlns="http://www.w3.org/2000/svg">
  <path d="M0 186.5V0H89.5C116.5 0 138.167 6.33333 154.5 19C170.833 31.6667 179 49.8333 179 73.5C179 89.1667 174.667 102.833 166 114.5C157.333 126.167 145.167 134.833 129.5 140.5L187 186.5H134L82.5 142.5H47V186.5H0ZM47 106H86C98.6667 106 108.5 103 115.5 97C122.5 91 126 82.6667 126 72C126 61.3333 122.5 53 115.5 47C108.5 41 98.6667 38 86 38H47V106Z" fill="black"/>
  <path d="M424 186.5V0H513.5C540.5 0 562.167 6.33333 578.5 19C594.833 31.6667 603 49.8333 603 73.5C603 89.1667 598.667 102.833 590 114.5C581.333 126.167 569.167 134.833 553.5 140.5L611 186.5H558L506.5 142.5H471V186.5H424ZM471 106H510C522.667 106 532.5 103 539.5 97C546.5 91 550 82.6667 550 72C550 61.3333 546.5 53 539.5 47C532.5 41 522.667 38 510 38H471V106Z" fill="black"/>
  <path d="M848 186.5V0H937.5C964.5 0 986.167 6.33333 1002.5 19C1018.83 31.6667 1027 49.8333 1027 73.5C1027 89.1667 1022.67 102.833 1014 114.5C1005.33 126.167 993.167 134.833 977.5 140.5L1035 186.5H982L930.5 142.5H895V186.5H848ZM895 106H934C946.667 106 956.5 103 963.5 97C970.5 91 974 82.6667 974 72C974 61.3333 970.5 53 963.5 47C956.5 41 946.667 38 934 38H895V106Z" fill="black"/>
  <circle cx="720" cy="93" r="8" fill="#FF0000"/>
  <path d="M720 237C666.5 237 618.167 222.5 575 193.5C531.833 164.5 497.5 126.167 472 78.5C446.5 30.8333 433.75 -21.1667 433.75 -77.5C433.75 -133.833 446.5 -185.833 472 -233.5C497.5 -281.167 531.833 -319.5 575 -348.5C618.167 -377.5 666.5 -392 720 -392C773.5 -392 821.833 -377.5 865 -348.5C908.167 -319.5 942.5 -281.167 968 -233.5C993.5 -185.833 1006.25 -133.833 1006.25 -77.5C1006.25 -21.1667 993.5 30.8333 968 78.5C942.5 126.167 908.167 164.5 865 193.5C821.833 222.5 773.5 237 720 237ZM720 187C760.667 187 797.5 176 830.5 154C863.5 132 889.167 102 907.5 64C925.833 26 935 -13.6667 935 -57C935 -100.333 925.833 -140 907.5 -176C889.167 -212 863.5 -241.167 830.5 -263.5C797.5 -285.833 760.667 -297 720 -297C679.333 -297 642.5 -285.833 609.5 -263.5C576.5 -241.167 550.833 -212 532.5 -176C514.167 -140 505 -100.333 505 -57C505 -13.6667 514.167 26 532.5 64C550.833 102 576.5 132 609.5 154C642.5 176 679.333 187 720 187Z" fill="black"/>
</svg>